<svg id="visual" viewBox="0 0 900 600" width="900" height="600" xmlns="http://www.w3.org/2000/svg" xmlns:xlink="http://www.w3.org/1999/xlink" version="1.1"><rect x="0" y="0" width="900" height="600" fill="#100E22"></rect><path d="M0 134L37.5 182C75 230 150 326 225 349.3C300 372.7 375 323.3 450 341.8C525 360.3 600 446.7 675 478.2C750 509.7 825 486.3 862.5 474.7L900 463L900 601L862.5 601C825 601 750 601 675 601C600 601 525 601 450 601C375 601 300 601 225 601C150 601 75 601 37.5 601L0 601Z" fill="#08CAB3" stroke-linecap="round" stroke-linejoin="miter"></path></svg>